<?xml version="1.0" encoding="UTF-8"?><svg id="Layer_2" xmlns="http://www.w3.org/2000/svg" viewBox="0 0 169.668 30.924"><g id="Components"><g id="_3ade3eaa-195d-4190-bc9b-242da8352e6f_13"><path d="m158.756,13.313c-2.275,0-3.792.843-4.55,2.528-.253.618-.421,1.25-.505,1.896h10.027c-.056-.702-.225-1.362-.506-1.98-.393-.815-.962-1.426-1.706-1.833-.744-.407-1.664-.611-2.76-.611Zm10.163,12.455c-.413.941-1.019,1.789-1.821,2.544-.955.843-2.127,1.489-3.518,1.938-1.39.449-2.9.674-4.529.674-2.5,0-4.634-.484-6.404-1.453-1.769-.969-3.061-2.367-3.876-4.192-.674-1.433-1.011-3.23-1.011-5.393,0-1.068.084-2.023.253-2.865.168-.843.421-1.643.758-2.402.787-1.797,2.03-3.195,3.729-4.192,1.699-.997,3.757-1.495,6.172-1.495,2.387,0,4.438.498,6.151,1.495,1.714.997,2.977,2.395,3.792,4.192.393.983.667,1.988.822,3.013.154,1.025.231,2.296.231,3.813h-16.01c.085,1.039.267,1.896.548,2.57.758,1.657,2.331,2.485,4.719,2.485,1.657,0,2.865-.365,3.623-1.095.309-.253.562-.576.758-.969.197-.393.323-.787.38-1.18h.025l5.208,2.512Zm-27.332,4.988c-1.601,0-2.9-.239-3.897-.717-.997-.477-1.734-1.221-2.212-2.233-.477-1.011-.716-2.359-.716-4.044v-9.564h-2.991v-4.676h7.388l-3.525-3.777c-.78-.836-.99-2.056-.534-3.104.456-1.049,1.49-1.728,2.634-1.728.754,0,1.477.3,2.01.833.533.533.832,1.255.832,2.009v2.176c0,.952.378,1.866,1.051,2.539.674.673,1.587,1.052,2.539,1.052h.001c.478,0,.936.189,1.274.527.338.338.528.797.528,1.275v2.874h-5.393v8.553c0,1.123.239,1.938.716,2.443.478.506,1.208.759,2.191.759.786,0,1.573-.099,2.359-.295v4.634c-1.657.309-3.075.464-4.255.464Zm-35.114-4.59c-.418.796-.973,1.512-1.666,2.146-.955.843-2.107,1.489-3.455,1.938-1.348.449-2.837.674-4.466.674-2.359,0-4.396-.477-6.109-1.432s-2.977-2.332-3.792-4.129c-.674-1.573-1.011-3.371-1.011-5.393,0-2.078.337-3.876,1.011-5.393.815-1.825,2.072-3.223,3.771-4.192,1.699-.969,3.743-1.453,6.13-1.453,1.629,0,3.111.224,4.445.674,1.334.449,2.478,1.109,3.433,1.98.815.73,1.454,1.594,1.917,2.591.464.997.71,2.1.738,3.307h-6.32c-.084-1.123-.477-2.036-1.18-2.738-.365-.309-.807-.548-1.327-.716-.519-.169-1.074-.253-1.664-.253-.955,0-1.783.203-2.486.611-.702.407-1.236,1.004-1.601,1.79-.196.478-.344,1.011-.442,1.601-.098.59-.147,1.306-.147,2.149,0,.871.049,1.601.147,2.191.098.59.246,1.109.442,1.559.365.786.899,1.383,1.601,1.79.703.407,1.531.611,2.486.611.646,0,1.222-.084,1.727-.253.506-.168.927-.407,1.264-.716.366-.337.646-.744.843-1.222.055-.133.103-.269.145-.406l5.566,2.684Zm-29.304,4.21h5.8141V9.5211h-5.8141v20.8549Zm2.949-23.467c-.955,0-1.742-.288-2.36-.863-.618-.576-.926-1.313-.926-2.212s.308-1.636.926-2.212c.618-.576,1.405-.864,2.36-.864.927,0,1.692.288,2.296.864.604.576.906,1.313.906,2.212s-.302,1.636-.906,2.212c-.604.575-1.369.863-2.296.863Zm-18.117,2.613h5.772v1.643c.478-.759.99-1.306,1.538-1.643.548-.338,1.187-.506,1.917-.506,1.095,0,1.966.323,2.612.969.646.646.969,1.503.969,2.57,0,1.039-.323,1.889-.969,2.549-.646.66-1.488.99-2.528.99-.618,0-1.186-.147-1.706-.442-.52-.295-.906-.682-1.159-1.159-.252.112-.421.288-.505.527-.084.238-.127.681-.127,1.327v14.029h-5.814V9.522Zm-9.528,14.071c.393-.955.59-2.162.59-3.623,0-1.489-.197-2.696-.59-3.623-.365-.843-.927-1.482-1.685-1.917-.758-.436-1.657-.653-2.697-.653-1.516,0-2.703.484-3.56,1.453-.856.969-1.285,2.353-1.285,4.15v1.138c0,1.797.429,3.181,1.285,4.15.857.969,2.044,1.453,3.56,1.453,1.04,0,1.939-.217,2.697-.653.758-.435,1.32-1.06,1.685-1.875Zm5.688-9.521c.758,1.685,1.137,3.651,1.137,5.898,0,2.163-.379,4.115-1.137,5.856-.73,1.629-1.805,2.886-3.223,3.771-1.419.885-3.111,1.327-5.077,1.327-2.949,0-5.182-1.025-6.699-3.075v2.527h-5.688V.632h5.815v11.249c1.516-1.966,3.707-2.949,6.572-2.949,1.966,0,3.658.449,5.077,1.348,1.418.899,2.493,2.163,3.223,3.792Zm56.958,6.656c0,3.166,1.656,4.895,4.233,4.895,2.76,0,4.38-1.877,4.38-4.38v-.883c0-2.613-1.767-4.417-4.38-4.417-2.54,0-4.233,1.657-4.233,4.785Zm8.613,5.485c-.994,2.76-3.166,4.6-6.515,4.6-4.785,0-8.171-3.717-8.171-10.048,0-6.478,3.496-9.975,8.171-9.975,3.386,0,5.521,1.804,6.515,4.564v-.074c0-1.103.438-2.161,1.218-2.94.78-.78,1.837-1.219,2.94-1.219h1.731v19.251h-1.731c-2.296,0-4.158-1.862-4.158-4.159ZM2.823,14.198H0v-4.676h2.823v-2.318c0-2.499.624-4.325,1.874-5.477,1.25-1.151,3.266-1.727,6.046-1.727,1.096,0,2.107.098,3.034.295v4.718c-.506-.196-1.18-.294-2.023-.294-2.05,0-3.075,1.025-3.075,3.075v1.728h5.013v4.676h-5.013v16.178H2.823V14.198Z" style="fill:#e93f8e; fill-rule:evenodd; stroke-width:0px;"/><path d="m19.083,18.541c-1.342,0-2.55-.813-3.057-2.055-.506-1.243-.21-2.669.75-3.607,1.421-1.376,3.292-2.089,5.403-2.089,3.386,0,5.521,1.804,6.515,4.564,0-2.337,1.895-4.233,4.232-4.233h1.657v19.251h-1.731c-2.296,0-4.158-1.862-4.158-4.159v-.001c-.994,2.761-3.166,4.601-6.515,4.601-2.145,0-4.008-.747-5.412-2.141-.94-.938-1.223-2.35-.716-3.577.508-1.227,1.705-2.028,3.033-2.028v-.004,3.557l8.427-5.818-8.427-5.819v3.558h-.001Z" style="fill:#e93f8e; fill-rule:evenodd; stroke-width:0px;"/></g></g></svg>
